<svg width="1068" height="94" viewBox="0 0 1068 94" fill="none" xmlns="http://www.w3.org/2000/svg">
<path d="M74.5 89.6875C74.5 89.9792 74.0833 90.1875 73.25 90.3125C71.6667 90.5625 67.6875 90.6875 61.3125 90.6875C55.8542 90.6875 52.1458 90.5625 50.1875 90.3125C49.2708 90.1875 48.75 90.0833 48.625 90C48.375 89.875 48.0833 89.4583 47.75 88.75C47.125 87.125 46.2083 84.7083 45 81.5C43.375 77.3333 40.8333 71.1875 37.375 63.0625C36.625 61.4375 34.8958 60.5417 32.1875 60.375C33.4375 60.4583 31.2917 60.5 25.75 60.5C25.125 60.5 24.8125 61.5625 24.8125 63.6875C24.8125 66.5208 25.0625 70.75 25.5625 76.375C26.1042 82 26.375 86.2292 26.375 89.0625C26.375 89.7708 26.1875 90.1875 25.8125 90.3125C25.2292 90.3542 24.6458 90.3958 24.0625 90.4375C21.6042 90.6042 17.7708 90.6875 12.5625 90.6875C6.60417 90.6875 3.02083 90.5625 1.8125 90.3125C0.604167 90.0625 0 89.4167 0 88.375C0 83.7917 0.208333 76.875 0.625 67.625C1.08333 58.375 1.3125 51.4375 1.3125 46.8125C1.3125 29.1875 0.916667 15.4375 0.125 5.5625L0.0625 4.6875C0.0208333 3.97917 0.666667 3.5 2 3.25C3.375 3 9.75 2.75 21.125 2.5C28.8333 2.33333 34.9792 2.25 39.5625 2.25C49.0625 2.25 56.8125 4.39583 62.8125 8.6875C69.6042 13.5208 73 20.5 73 29.625C73 35.7083 72.125 40.5625 70.375 44.1875C68.625 47.8125 65.3958 51.3333 60.6875 54.75C59.7292 55.4167 59.25 56.0417 59.25 56.625C59.25 56.5833 61.7917 61.8125 66.875 72.3125C71.9583 82.8125 74.5 88.6042 74.5 89.6875ZM48.25 33.625C48.25 28.5417 46.5833 25.0208 43.25 23.0625C40.6667 21.5625 36.625 20.8125 31.125 20.8125C27.1667 20.8125 25.0625 21.4167 24.8125 22.625C24.5625 24.0417 24.4375 28.125 24.4375 34.875C24.4375 35.8333 24.4583 37.25 24.5 39.125C24.5417 41 24.5625 42.3958 24.5625 43.3125C24.5625 43.5208 25.2292 43.7292 26.5625 43.9375C29.1042 44.3125 31.7708 44.5 34.5625 44.5C43.6875 44.5 48.25 40.875 48.25 33.625ZM145.625 70.875C145.625 72.6667 145.271 75.9583 144.562 80.75C143.812 85.9583 143.146 89.0625 142.562 90.0625C142.062 90.8542 141.375 91.25 140.5 91.25C140.125 91.25 139.5 91.1875 138.625 91.0625C135.583 90.6458 126.708 90.4375 112 90.4375C108.792 90.4375 104.021 90.4167 97.6875 90.375C91.3542 90.3333 86.6042 90.3125 83.4375 90.3125C82.0625 90.3125 81.375 89.7083 81.375 88.5C81.375 83.8333 81.625 76.8333 82.125 67.5C82.6667 58.125 82.9375 51.1042 82.9375 46.4375C82.9375 41.6875 82.6875 32.8333 82.1875 19.875C82.0625 16.5417 81.8333 11.5625 81.5 4.9375L81.4375 4.0625C81.3542 3.10417 81.875 2.625 83 2.625C86.0833 2.625 90.7083 2.70833 96.875 2.875C103.083 3.04167 107.729 3.125 110.812 3.125C113.854 3.125 118.438 3.04167 124.562 2.875C130.688 2.70833 135.271 2.625 138.312 2.625C140.479 2.625 141.729 3.4375 142.062 5.0625C142.271 6.02083 142.583 8.9375 143 13.8125C143.458 18.6458 143.688 21.5833 143.688 22.625C143.688 23.5 143.271 23.9375 142.438 23.9375C142.188 23.9375 141.75 23.9167 141.125 23.875C130.042 22.9583 120.083 22.5 111.25 22.5C109.042 22.5 107.688 23.0208 107.188 24.0625C106.979 24.5625 106.875 26.1667 106.875 28.875C106.875 31.7083 107.292 33.5833 108.125 34.5C108.833 35.2917 110.188 35.6875 112.188 35.6875C112.604 35.6875 113.417 35.6667 114.625 35.625C115.833 35.5417 116.833 35.5 117.625 35.5C122.875 35.5 128.188 35.3542 133.562 35.0625C134.021 35.0208 135.167 34.9167 137 34.75C138.417 34.5833 139.542 34.5 140.375 34.5C141.375 34.5 141.875 34.9792 141.875 35.9375C141.875 35.0625 141.5 38.25 140.75 45.5C140.417 48.8333 140.25 52.1667 140.25 55.5C140.25 56.3333 139.646 56.75 138.438 56.75C138.438 56.75 136.562 56.5417 132.812 56.125C130.438 55.875 125.021 55.75 116.562 55.75H109.938C108.229 55.75 107.229 56.1667 106.938 57C106.896 57.2083 106.875 58.5 106.875 60.875C106.875 64.0417 107.083 66.0833 107.5 67C108.208 68.5833 110.875 69.5208 115.5 69.8125C115.417 69.8125 118.458 69.8125 124.625 69.8125C126.833 69.8125 130.104 69.625 134.438 69.25C138.812 68.8333 142.083 68.625 144.25 68.625C145.167 68.625 145.625 69.375 145.625 70.875ZM237.625 4.5625C237.625 9.3125 237.417 16.4583 237 26C236.625 35.5 236.438 42.6458 236.438 47.4375V88.625C236.438 89.75 235.833 90.3125 234.625 90.3125C233.625 90.3125 232.104 90.3542 230.062 90.4375C228.062 90.5208 226.562 90.5625 225.562 90.5625C224.479 90.5625 222.854 90.4792 220.688 90.3125C218.521 90.1458 216.896 90.0625 215.812 90.0625C215.062 90.0625 214.167 89.375 213.125 88C210.125 83.9583 203.375 75 192.875 61.125C190 57.25 185.625 51.5417 179.75 44C179.583 43.75 179.271 43.5 178.812 43.25C178.479 43.5417 178.312 44 178.312 44.625C178.312 49.4583 178.438 56.7083 178.688 66.375C178.979 76.0417 179.125 83.2917 179.125 88.125C179.125 89.5833 178.562 90.3125 177.438 90.3125H155.812C154.604 90.3125 154 89.6667 154 88.375C154 83.875 154.208 77.0833 154.625 68C155.083 58.9167 155.312 52.1042 155.312 47.5625C155.312 42.7708 155.104 35.6042 154.688 26.0625C154.312 16.5208 154.125 9.375 154.125 4.625C154.125 3.70833 154.938 3.25 156.562 3.25C158.979 3.25 161.958 3.08333 165.5 2.75C166.333 2.66667 167.979 2.39583 170.438 1.9375C172.521 1.5625 174.167 1.375 175.375 1.375C175.875 1.375 176.646 2.08333 177.688 3.5L201 35.4375C203.083 38.3125 206.229 42.5208 210.438 48.0625C211.479 49.3542 212.375 50 213.125 50C213.667 50 213.938 48.375 213.938 45.125C213.938 40.75 213.688 34.1667 213.188 25.375C212.729 16.5833 212.5 9.97917 212.5 5.5625C212.5 4.02083 212.938 3.25 213.812 3.25C216.312 3.25 220.083 3.14583 225.125 2.9375C230.167 2.72917 233.938 2.625 236.438 2.625C237.229 2.625 237.625 3.27083 237.625 4.5625ZM310.125 21.75C310.125 22.5833 309.667 23 308.75 23C307.167 23 300.896 22.6875 289.938 22.0625C289.688 32.6042 289.562 39.9583 289.562 44.125C289.562 49.0417 289.75 56.4375 290.125 66.3125C290.542 76.1875 290.75 83.5833 290.75 88.5C290.75 89.2917 290.562 89.7917 290.188 90C290.062 90.0833 289.479 90.1875 288.438 90.3125C285.938 90.6458 282.271 90.8125 277.438 90.8125C272.062 90.8125 268.292 90.6458 266.125 90.3125C264.958 90.1042 264.375 89.4583 264.375 88.375C264.375 83.4583 264.583 76.0833 265 66.25C265.417 56.4167 265.625 49.0417 265.625 44.125C265.625 40.875 265.458 33.625 265.125 22.375C256.792 23.2083 250.146 23.625 245.188 23.625C244.521 23.625 244.188 23.4167 244.188 23C244.188 22.4583 244.479 20.8542 245.062 18.1875C245.729 15.2708 246.104 13.5 246.188 12.875C246.312 10.9167 246.458 8.95833 246.625 7C246.917 3.875 247.417 2.3125 248.125 2.3125C248.208 2.3125 248.5 2.33333 249 2.375C255.75 3.25 265.729 3.6875 278.938 3.6875C282.688 3.6875 289.604 3.29167 299.688 2.5C305.104 2.08333 307.833 1.875 307.875 1.875C308.708 1.875 309.188 1.9375 309.312 2.0625C309.438 2.14583 309.521 2.54167 309.562 3.25C309.562 4.375 309.521 5.9375 309.438 7.9375C309.354 10.1458 309.312 11.7083 309.312 12.625C309.312 13.6667 309.438 15.2083 309.688 17.25C309.979 19.25 310.125 20.75 310.125 21.75ZM427.875 34.625C427.875 34.75 424 43.1458 416.25 59.8125C408.375 76.8125 403.875 86.375 402.75 88.5C402.375 89.25 402.146 89.6667 402.062 89.75C401.896 89.9583 401.5 90.1458 400.875 90.3125C399.833 90.5625 396.875 90.6875 392 90.6875C387.458 90.6875 384.688 90.5625 383.688 90.3125C382.854 90.1042 382.354 89.9375 382.188 89.8125C382.021 89.6875 381.75 89.2917 381.375 88.625C381.125 88.1667 379.938 85.2292 377.812 79.8125L371 62.4375L364.062 80C363.354 82 362.188 84.875 360.562 88.625C360.146 89.3333 359.854 89.7708 359.688 89.9375C359.521 90.0625 359.042 90.1875 358.25 90.3125C356.833 90.5625 354.104 90.6875 350.062 90.6875C345.062 90.6875 342.062 90.5625 341.062 90.3125C340.354 90.1458 339.771 89.5417 339.312 88.5C322.979 54.9583 314.812 37 314.812 34.625C314.812 31.2917 314.917 26.3125 315.125 19.6875C315.375 13.0208 315.5 8.02083 315.5 4.6875C315.5 3.3125 315.917 2.625 316.75 2.625C319.125 2.625 322.708 2.72917 327.5 2.9375C332.333 3.14583 335.958 3.25 338.375 3.25C339.333 3.25 339.812 3.64583 339.812 4.4375C339.812 7.77083 339.646 12.8125 339.312 19.5625C339.021 26.2708 338.875 31.2917 338.875 34.625C338.875 35.875 340.396 39.8542 343.438 46.5625C346.188 52.5625 348.188 56.625 349.438 58.75C350.062 59.8333 350.479 60.375 350.688 60.375C351.021 60.375 351.875 58.375 353.25 54.375C357.167 43.1667 359.167 36.5417 359.25 34.5C359.417 30.6667 359.438 25.7917 359.312 19.875C359.188 11.3333 359.125 6.4375 359.125 5.1875C359.125 4.39583 359.188 3.9375 359.312 3.8125C359.438 3.64583 359.896 3.5 360.688 3.375C362.812 3.125 366.479 3 371.688 3C379.646 3 383.625 3.5625 383.625 4.6875C383.625 7.47917 383.521 11.8125 383.312 17.6875C383.104 23.3958 383.021 27.7292 383.062 30.6875V33.875C383.062 36 385.208 42.7708 389.5 54.1875C390.958 58.1458 391.833 60.125 392.125 60.125C392.333 60.125 392.75 59.5833 393.375 58.5C394.542 56.4583 396.417 52.4167 399 46.375C401.875 39.7917 403.312 35.875 403.312 34.625C403.312 31.25 403.146 26.2083 402.812 19.5C402.521 12.75 402.375 7.70833 402.375 4.375C402.375 3.625 402.854 3.25 403.812 3.25C406.271 3.25 409.958 3.14583 414.875 2.9375C419.833 2.72917 423.542 2.625 426 2.625C426.792 2.625 427.188 3.45833 427.188 5.125C427.188 8.41667 427.292 13.3542 427.5 19.9375C427.75 26.4792 427.875 31.375 427.875 34.625ZM523.938 46.5625C523.938 59.5625 519.792 70.4583 511.5 79.25C503.042 88.1667 492.333 92.625 479.375 92.625C466.5 92.625 455.812 88.125 447.312 79.125C438.979 70.3333 434.812 59.4792 434.812 46.5625C434.812 33.6042 438.979 22.7083 447.312 13.875C455.812 4.83333 466.5 0.3125 479.375 0.3125C492.167 0.3125 502.833 4.83333 511.375 13.875C519.75 22.7917 523.938 33.6875 523.938 46.5625ZM500.25 46.4375C500.25 40.1875 498.354 34.875 494.562 30.5C490.604 25.9167 485.542 23.625 479.375 23.625C473.5 23.625 468.521 26 464.438 30.75C460.479 35.3333 458.5 40.6042 458.5 46.5625C458.5 52.9375 460.354 58.25 464.062 62.5C467.979 66.9583 473.083 69.1875 479.375 69.1875C485.25 69.1875 490.25 66.8333 494.375 62.125C498.292 57.625 500.25 52.3958 500.25 46.4375ZM607.75 89.6875C607.75 89.9792 607.333 90.1875 606.5 90.3125C604.917 90.5625 600.938 90.6875 594.562 90.6875C589.104 90.6875 585.396 90.5625 583.438 90.3125C582.521 90.1875 582 90.0833 581.875 90C581.625 89.875 581.333 89.4583 581 88.75C580.375 87.125 579.458 84.7083 578.25 81.5C576.625 77.3333 574.083 71.1875 570.625 63.0625C569.875 61.4375 568.146 60.5417 565.438 60.375C566.688 60.4583 564.542 60.5 559 60.5C558.375 60.5 558.062 61.5625 558.062 63.6875C558.062 66.5208 558.312 70.75 558.812 76.375C559.354 82 559.625 86.2292 559.625 89.0625C559.625 89.7708 559.438 90.1875 559.062 90.3125C558.479 90.3542 557.896 90.3958 557.312 90.4375C554.854 90.6042 551.021 90.6875 545.812 90.6875C539.854 90.6875 536.271 90.5625 535.062 90.3125C533.854 90.0625 533.25 89.4167 533.25 88.375C533.25 83.7917 533.458 76.875 533.875 67.625C534.333 58.375 534.562 51.4375 534.562 46.8125C534.562 29.1875 534.167 15.4375 533.375 5.5625L533.312 4.6875C533.271 3.97917 533.917 3.5 535.25 3.25C536.625 3 543 2.75 554.375 2.5C562.083 2.33333 568.229 2.25 572.812 2.25C582.312 2.25 590.062 4.39583 596.062 8.6875C602.854 13.5208 606.25 20.5 606.25 29.625C606.25 35.7083 605.375 40.5625 603.625 44.1875C601.875 47.8125 598.646 51.3333 593.938 54.75C592.979 55.4167 592.5 56.0417 592.5 56.625C592.5 56.5833 595.042 61.8125 600.125 72.3125C605.208 82.8125 607.75 88.6042 607.75 89.6875ZM581.5 33.625C581.5 28.5417 579.833 25.0208 576.5 23.0625C573.917 21.5625 569.875 20.8125 564.375 20.8125C560.417 20.8125 558.312 21.4167 558.062 22.625C557.812 24.0417 557.688 28.125 557.688 34.875C557.688 35.8333 557.708 37.25 557.75 39.125C557.792 41 557.812 42.3958 557.812 43.3125C557.812 43.5208 558.479 43.7292 559.812 43.9375C562.354 44.3125 565.021 44.5 567.812 44.5C576.938 44.5 581.5 40.875 581.5 33.625ZM691.812 86.8125C691.812 88.6042 691.042 89.7708 689.5 90.3125C688.25 90.7292 684.958 90.9375 679.625 90.9375C674.5 90.9375 670.75 90.7292 668.375 90.3125C667.25 90.1042 666.5 89.8958 666.125 89.6875C665.792 89.4375 665.354 88.8333 664.812 87.875C661.771 82.2917 658.75 76.7083 655.75 71.125C650.792 62.125 647.833 57.1667 646.875 56.25C642.375 57.875 640.125 59.0417 640.125 59.75C640.125 62.875 640.25 67.6042 640.5 73.9375C640.75 80.2292 640.875 84.9583 640.875 88.125C640.875 89.4167 640.312 90.1458 639.188 90.3125C637.021 90.6458 633.104 90.8125 627.438 90.8125C622.021 90.8125 618.438 90.6458 616.688 90.3125C615.479 90.0625 614.875 89.4167 614.875 88.375C614.875 83.875 615.083 77.0833 615.5 68C615.958 58.9167 616.188 52.1042 616.188 47.5625C616.188 42.7292 615.979 35.4792 615.562 25.8125C615.146 16.1042 614.938 8.83333 614.938 4C614.938 3.08333 615.375 2.625 616.25 2.625C617.542 2.625 619.479 2.6875 622.062 2.8125C624.688 2.9375 626.646 3 627.938 3C629.271 3 631.25 2.9375 633.875 2.8125C636.5 2.6875 638.458 2.625 639.75 2.625C640.458 2.625 640.812 3 640.812 3.75C640.812 6.83333 640.646 11.5 640.312 17.75C640.021 23.9583 639.875 28.6042 639.875 31.6875C639.875 35.2708 640.854 37.0625 642.812 37.0625C647.771 37.0625 651.625 35.7083 654.375 33C656.417 31 658.479 27.3542 660.562 22.0625C661.896 18.0208 664.083 12.0625 667.125 4.1875C667.583 3.14583 668.521 2.625 669.938 2.625C671.021 2.625 672.646 2.6875 674.812 2.8125C677.021 2.9375 678.667 3 679.75 3C680.875 3 682.542 2.95833 684.75 2.875C687 2.79167 688.667 2.75 689.75 2.75C690.75 2.75 691.25 3.22917 691.25 4.1875C691.25 5.5625 690.375 8.91667 688.625 14.25C683.458 30 677.521 39.8333 670.812 43.75C669.438 44.5417 668.75 45.1875 668.75 45.6875C668.75 45.6458 672.583 51.8958 680.25 64.4375C687.958 76.9792 691.812 84.4375 691.812 86.8125ZM741.625 61.5625C741.625 70.0208 738.062 77.2708 730.938 83.3125C724.688 88.6458 717.083 92.0417 708.125 93.5C707.792 93.5417 707.521 93.5625 707.312 93.5625C706.354 93.5625 704.229 90.6458 700.938 84.8125C697.646 78.9375 696 75.3542 696 74.0625C696 73.6042 696.312 73.3125 696.938 73.1875C702.979 71.8125 706.979 70.6458 708.938 69.6875C713.271 67.5208 715.438 64.3125 715.438 60.0625C715.438 57.3542 714.021 54.3333 711.188 51C706.271 45.3333 703.604 42.1875 703.188 41.5625C700.312 37.2292 698.875 32.4375 698.875 27.1875C698.875 19.5625 702.396 13.2292 709.438 8.1875C715.188 4.02083 722.25 1.3125 730.625 0.0625C731.083 0.0208333 731.438 0 731.688 0C732.312 0 732.812 0.5 733.188 1.5C734.271 4.54167 736.792 10.0417 740.75 18C740.875 18.25 740.938 18.4583 740.938 18.625C740.938 19.3333 740.562 19.6875 739.812 19.6875C739.479 19.6875 738.917 19.625 738.125 19.5C737.333 19.375 736.729 19.3125 736.312 19.3125C733.312 19.3125 730.688 20 728.438 21.375C725.729 22.9583 724.375 25.1667 724.375 28C724.375 30.5417 725.875 33.6667 728.875 37.375C734.167 44.0417 736.938 47.5417 737.188 47.875C740.146 52.4583 741.625 57.0208 741.625 61.5625Z" fill="#081E32"/>
<path d="M858.875 36.0625C858.875 46.1458 856.229 54.3125 850.938 60.5625C845.271 67.1875 837.458 70.5 827.5 70.5C825.833 70.5 823.312 70.4167 819.938 70.25C816.604 70.0417 814.104 69.9375 812.438 69.9375C810.646 69.9375 809.75 70.7083 809.75 72.25C809.75 74.1667 809.938 77.0208 810.312 80.8125C810.688 84.6042 810.875 87.4375 810.875 89.3125C810.875 90.2708 810.438 90.75 809.562 90.75C807.021 90.75 803.208 90.6667 798.125 90.5C793.042 90.375 789.229 90.3125 786.688 90.3125C785.479 90.3125 784.875 89.7083 784.875 88.5C784.875 83.875 784.938 76.9375 785.062 67.6875C785.229 58.3958 785.312 51.4375 785.312 46.8125C785.312 33.7292 784.75 19.9792 783.625 5.5625L783.562 4.6875C783.479 3.89583 784.104 3.41667 785.438 3.25C788.688 2.83333 795.854 2.625 806.938 2.625C813.479 2.625 819.75 2.70833 825.75 2.875C835.625 3.16667 843.583 6.27083 849.625 12.1875C855.792 18.2708 858.875 26.2292 858.875 36.0625ZM833.938 37.0625C833.938 27.3542 829.208 22.5 819.75 22.5C813.083 22.5 809.583 22.875 809.25 23.625C808.958 24.1667 808.812 28.9792 808.812 38.0625C808.812 39.3542 808.854 41.2708 808.938 43.8125C809.062 46.3125 809.125 48.2083 809.125 49.5C809.125 50.3333 812.875 50.75 820.375 50.75C829.417 50.75 833.938 46.1875 833.938 37.0625ZM924.938 91.375C921.354 91.375 916.688 91.2917 910.938 91.125C903.438 90.9583 898.771 90.8542 896.938 90.8125L878.25 90.5625C876.375 90.6042 873.688 90.5208 870.188 90.3125C868.979 90.1042 868.375 89.4583 868.375 88.375C868.375 83.8333 868.438 77.0417 868.562 68C868.729 58.9167 868.812 52.1042 868.812 47.5625C868.812 42.7292 868.667 35.5 868.375 25.875C868.083 16.2083 867.938 8.95833 867.938 4.125C867.938 3.20833 868.562 2.75 869.812 2.75C871.062 2.75 872.917 2.8125 875.375 2.9375C877.875 3.0625 879.729 3.125 880.938 3.125C882.312 3.125 884.354 3.0625 887.062 2.9375C889.771 2.77083 891.812 2.6875 893.188 2.6875C893.812 2.6875 894.104 3.08333 894.062 3.875L894 4.6875C893.5 12.5208 892.938 24.2917 892.312 40L892.25 56.5C892.25 61.8333 892.271 65.7292 892.312 68.1875C892.354 68.6875 892.396 69.1875 892.438 69.6875C892.479 70.1875 892.792 70.5 893.375 70.625C893.417 70.625 893.958 70.625 895 70.625C898.75 70.625 904.354 70.4375 911.812 70.0625C919.312 69.6458 924.938 69.4375 928.688 69.4375C929.812 69.4375 930.375 69.9167 930.375 70.875C930.375 78 929.854 84.1458 928.812 89.3125C928.604 90.3958 928.167 91.0417 927.5 91.25C927.292 91.3333 926.438 91.375 924.938 91.375ZM1012.12 59.625C1012.12 70.25 1010.85 77.5 1008.31 81.375C1003.65 88.4583 992 92 973.375 92C964.958 92 958.479 91.3542 953.938 90.0625C946.688 87.9792 941.979 84 939.812 78.125C938.729 75.25 938.188 70.125 938.188 62.75C938.188 61.0417 938.25 58.5 938.375 55.125C938.5 51.75 938.562 49.2292 938.562 47.5625C938.562 42.7292 938.333 35.4792 937.875 25.8125C937.417 16.1458 937.188 8.91667 937.188 4.125C937.188 3.125 937.625 2.625 938.5 2.625C941.042 2.625 944.875 2.72917 950 2.9375C955.167 3.14583 959.021 3.25 961.562 3.25C962.604 3.25 963.125 3.70833 963.125 4.625C963.125 10.125 962.938 18.375 962.562 29.375C962.229 40.3333 962.062 48.5625 962.062 54.0625C962.062 60.6042 962.75 65.0208 964.125 67.3125C965.958 70.4375 969.792 72 975.625 72C984.167 72 988.438 67.8542 988.438 59.5625C988.438 53.5208 988.292 44.4583 988 32.375C987.708 20.2917 987.562 11.2292 987.562 5.1875C987.562 3.89583 988.083 3.25 989.125 3.25C991.583 3.25 995.292 3.14583 1000.25 2.9375C1005.21 2.72917 1008.92 2.625 1011.38 2.625C1012.58 2.625 1013.19 3.125 1013.19 4.125C1013.19 8.91667 1012.98 16.1458 1012.56 25.8125C1012.19 35.4792 1012 42.7292 1012 47.5625C1012 48.8958 1012.02 50.9167 1012.06 53.625C1012.1 56.2917 1012.12 58.2917 1012.12 59.625ZM1067.12 61.5625C1067.12 70.0208 1063.56 77.2708 1056.44 83.3125C1050.19 88.6458 1042.58 92.0417 1033.62 93.5C1033.29 93.5417 1033.02 93.5625 1032.81 93.5625C1031.85 93.5625 1029.73 90.6458 1026.44 84.8125C1023.15 78.9375 1021.5 75.3542 1021.5 74.0625C1021.5 73.6042 1021.81 73.3125 1022.44 73.1875C1028.48 71.8125 1032.48 70.6458 1034.44 69.6875C1038.77 67.5208 1040.94 64.3125 1040.94 60.0625C1040.94 57.3542 1039.52 54.3333 1036.69 51C1031.77 45.3333 1029.1 42.1875 1028.69 41.5625C1025.81 37.2292 1024.38 32.4375 1024.38 27.1875C1024.38 19.5625 1027.9 13.2292 1034.94 8.1875C1040.69 4.02083 1047.75 1.3125 1056.12 0.0625C1056.58 0.0208333 1056.94 0 1057.19 0C1057.81 0 1058.31 0.5 1058.69 1.5C1059.77 4.54167 1062.29 10.0417 1066.25 18C1066.38 18.25 1066.44 18.4583 1066.44 18.625C1066.44 19.3333 1066.06 19.6875 1065.31 19.6875C1064.98 19.6875 1064.42 19.625 1063.62 19.5C1062.83 19.375 1062.23 19.3125 1061.81 19.3125C1058.81 19.3125 1056.19 20 1053.94 21.375C1051.23 22.9583 1049.88 25.1667 1049.88 28C1049.88 30.5417 1051.38 33.6667 1054.38 37.375C1059.67 44.0417 1062.44 47.5417 1062.69 47.875C1065.65 52.4583 1067.12 57.0208 1067.12 61.5625Z" fill="#007A55"/>
</svg>
